<?xml version="1.0" encoding="utf-8"?>
<!-- Generator: Adobe Illustrator 16.0.0, SVG Export Plug-In . SVG Version: 6.00 Build 0)  -->
<!DOCTYPE svg PUBLIC "-//W3C//DTD SVG 1.1//EN" "http://www.w3.org/Graphics/SVG/1.1/DTD/svg11.dtd">
<svg version="1.1" id="Layer_1" xmlns="http://www.w3.org/2000/svg" xmlns:xlink="http://www.w3.org/1999/xlink" x="0px" y="0px"
	 width="114.516px" height="31px" viewBox="0 0 114.516 31" enable-background="new 0 0 114.516 31" xml:space="preserve">
<g>
	<path fill="#FFFFFF" d="M24.557,28.584c0,0.639-0.257,1.167-0.771,1.583c-0.514,0.416-1.119,0.624-1.812,0.624
		c-0.445,0-0.869-0.105-1.271-0.313c-0.403-0.208-0.744-0.521-1.021-0.938l-5.541-8.415c-0.555-0.888-1.145-1.514-1.77-1.875
		c-0.625-0.359-1.438-0.541-2.437-0.541H5.852v9.333c0,0.832-0.236,1.492-0.708,1.978C4.67,30.506,4.031,30.75,3.227,30.75
		c-0.806,0-1.452-0.244-1.938-0.729c-0.486-0.485-0.729-1.146-0.729-1.978V3.67c0-0.805,0.229-1.431,0.688-1.875
		c0.458-0.445,1.089-0.667,1.896-0.667h10.416c3.333,0,5.867,0.744,7.603,2.229c1.735,1.486,2.604,3.632,2.604,6.438
		c0,2.277-0.646,4.145-1.937,5.603c-1.292,1.458-3.119,2.395-5.479,2.812c0.806,0.194,1.514,0.542,2.125,1.042
		c0.61,0.5,1.208,1.194,1.792,2.084l3.791,5.79C24.391,27.625,24.557,28.111,24.557,28.584z M17.267,13.44
		c0.944-0.764,1.417-1.938,1.417-3.521c0-1.61-0.473-2.784-1.417-3.521c-0.944-0.735-2.431-1.104-4.458-1.104H5.81v9.29h6.999
		C14.836,14.585,16.322,14.204,17.267,13.44z"/>
	<path fill="#FFFFFF" d="M44.076,11.731c1.375,1.403,2.062,3.535,2.062,6.395v10.166c0,0.749-0.223,1.339-0.667,1.771
		c-0.444,0.43-1.056,0.646-1.833,0.646c-0.723,0-1.313-0.224-1.771-0.666c-0.458-0.445-0.688-1.028-0.688-1.751v-0.917
		c-0.472,1.083-1.215,1.932-2.229,2.541c-1.013,0.612-2.187,0.917-3.52,0.917c-1.36,0-2.597-0.277-3.708-0.832
		c-1.112-0.557-1.987-1.319-2.625-2.293c-0.641-0.972-0.959-2.055-0.959-3.249c0-1.501,0.382-2.681,1.146-3.541
		s2.006-1.485,3.729-1.875c1.721-0.39,4.096-0.583,7.124-0.583h1.041V17.5c0-1.359-0.292-2.353-0.874-2.977
		c-0.583-0.625-1.528-0.938-2.833-0.938c-0.806,0-1.625,0.118-2.458,0.354c-0.834,0.236-1.82,0.577-2.958,1.021
		c-0.722,0.361-1.25,0.541-1.583,0.541c-0.5,0-0.911-0.18-1.229-0.541c-0.319-0.361-0.479-0.834-0.479-1.417
		c0-0.472,0.118-0.881,0.354-1.229s0.632-0.673,1.188-0.979c0.972-0.527,2.131-0.945,3.479-1.25
		c1.347-0.305,2.672-0.458,3.979-0.458C40.597,9.627,42.702,10.329,44.076,11.731z M39.868,25.688
		c0.875-0.929,1.312-2.132,1.312-3.604v-0.875h-0.749c-1.862,0-3.306,0.084-4.333,0.251c-1.028,0.166-1.765,0.458-2.208,0.874
		c-0.445,0.417-0.667,0.987-0.667,1.709c0,0.889,0.313,1.618,0.937,2.187c0.625,0.568,1.396,0.854,2.313,0.854
		C37.861,27.083,38.993,26.618,39.868,25.688z"/>
	<path fill="#FFFFFF" d="M51.762,5.232c-0.556-0.513-0.833-1.187-0.833-2.021c0-0.833,0.278-1.5,0.833-2
		c0.556-0.5,1.306-0.75,2.25-0.75c0.917,0,1.659,0.25,2.229,0.75c0.569,0.5,0.854,1.166,0.854,2c0,0.834-0.278,1.508-0.833,2.021
		c-0.556,0.514-1.306,0.771-2.25,0.771S52.317,5.746,51.762,5.232z M52.158,30.104c-0.486-0.432-0.729-1.048-0.729-1.854V12.169
		c0-0.806,0.243-1.417,0.729-1.833c0.485-0.417,1.104-0.625,1.854-0.625c0.75,0,1.375,0.208,1.875,0.625
		c0.5,0.417,0.75,1.028,0.75,1.833V28.25c0,0.807-0.25,1.423-0.75,1.854c-0.5,0.431-1.125,0.646-1.875,0.646
		C53.262,30.75,52.643,30.535,52.158,30.104z"/>
	<path fill="#FFFFFF" d="M79.299,11.71c1.194,1.389,1.793,3.485,1.793,6.292V28.25c0,0.777-0.229,1.39-0.688,1.832
		c-0.458,0.446-1.091,0.668-1.897,0.668c-0.806,0-1.443-0.222-1.914-0.668c-0.474-0.442-0.709-1.055-0.709-1.832v-9.957
		c0-1.583-0.299-2.735-0.896-3.458c-0.598-0.722-1.535-1.083-2.812-1.083c-1.5,0-2.701,0.473-3.604,1.417
		c-0.903,0.944-1.354,2.208-1.354,3.791v9.291c0,0.777-0.236,1.39-0.708,1.832c-0.473,0.446-1.111,0.668-1.917,0.668
		c-0.806,0-1.437-0.222-1.896-0.668c-0.458-0.442-0.687-1.055-0.687-1.832V12.127c0-0.722,0.235-1.305,0.708-1.75
		C63.19,9.933,63.83,9.71,64.635,9.71c0.722,0,1.313,0.216,1.771,0.646c0.458,0.43,0.688,0.993,0.688,1.688v1.124
		c0.694-1.139,1.625-2.014,2.792-2.625c1.166-0.611,2.485-0.917,3.958-0.917C76.285,9.627,78.104,10.322,79.299,11.71z"/>
	<path fill="#FFFFFF" d="M90.194,29.541c-1.57-0.859-2.786-2.097-3.646-3.707c-0.861-1.61-1.293-3.485-1.293-5.624
		s0.432-4.007,1.293-5.604c0.859-1.597,2.075-2.825,3.646-3.687c1.568-0.861,3.396-1.292,5.478-1.292
		c2.084,0,3.908,0.431,5.479,1.292c1.57,0.862,2.776,2.09,3.625,3.687c0.848,1.597,1.27,3.465,1.27,5.604s-0.422,4.014-1.27,5.624
		c-0.849,1.61-2.055,2.848-3.625,3.707c-1.57,0.862-3.395,1.292-5.479,1.292C93.59,30.833,91.763,30.403,90.194,29.541z
		 M99.507,25.125c0.887-1.111,1.332-2.749,1.332-4.915c0-2.139-0.445-3.771-1.332-4.896c-0.891-1.125-2.169-1.688-3.835-1.688
		s-2.951,0.563-3.854,1.688c-0.901,1.124-1.353,2.757-1.353,4.896c0,2.166,0.443,3.804,1.333,4.915
		c0.889,1.11,2.166,1.667,3.832,1.667C97.324,26.792,98.616,26.235,99.507,25.125z"/>
</g>
<path fill="#FFFFFF" d="M114.292,27.063c0,1.589-1.287,2.876-2.876,2.876l0,0c-1.588,0-2.875-1.287-2.875-2.876l0,0
	c0-1.588,1.287-2.875,2.875-2.875l0,0C113.005,24.188,114.292,25.475,114.292,27.063L114.292,27.063z"/>
</svg>
