<?xml version="1.0" encoding="utf-8"?>
<!-- Generator: Adobe Illustrator 16.0.0, SVG Export Plug-In . SVG Version: 6.00 Build 0)  -->
<!DOCTYPE svg PUBLIC "-//W3C//DTD SVG 1.1//EN" "http://www.w3.org/Graphics/SVG/1.1/DTD/svg11.dtd">
<svg version="1.1" id="Layer_1" xmlns="http://www.w3.org/2000/svg" xmlns:xlink="http://www.w3.org/1999/xlink" x="0px" y="0px"
	 width="380px" height="690px" viewBox="288.5 -73.5 380 690" enable-background="new 288.5 -73.5 380 690" xml:space="preserve">
<filter  width="152.7%" height="126.3%" x="-26.4%" id="filter-2" y="-9.4%" filterUnits="objectBoundingBox">
	<feOffset  dy="20" dx="0" in="SourceAlpha" result="shadowOffsetOuter1"></feOffset>
	<feGaussianBlur  in="shadowOffsetOuter1" result="shadowBlurOuter1" stdDeviation="20"></feGaussianBlur>
	<feColorMatrix  values="0 0 0 0 0 0 0 0 0 0 0 0 0 0 0 0 0 0 0.09 0" in="shadowBlurOuter1" type="matrix"></feColorMatrix>
</filter>
<g id="_x30_9" transform="translate(-765.000000, -236.000000)">
	<g id="iPhones" transform="translate(597.000000, 206.000000)">
		<g id="Phone" transform="translate(207.000000, 49.000000)">
			<g id="Combined-Shape">
				<g filter="url(#filter-2)">
					<path id="path-1_2_" fill="#FFFFFF" d="M587.496,68.648c1.063,0.21,1.869,1.146,1.869,2.273v65.615
						c0,1.125-0.807,2.062-1.869,2.27v348.878c0,24.004-19.446,43.465-43.436,43.465H335.306c-23.99,0-43.439-19.461-43.439-43.465
						V153.915c-0.901-0.632-1.493-1.68-1.493-2.868v-38.837c0-1.187,0.592-2.234,1.493-2.869V98.536
						c-0.901-0.635-1.493-1.683-1.493-2.868V56.83c0-1.187,0.592-2.236,1.493-2.867V34.536h-1.355V11.544h1.355v-36.93
						c0-24.005,19.45-43.465,43.439-43.465h208.754c23.989,0,43.436,19.46,43.436,43.465V68.648z M304.082,488.222
						c0,15.858,12.891,28.712,28.795,28.712H546.46c15.902,0,28.789-12.854,28.789-28.712v-515.11
						c0-15.861-12.887-28.716-28.789-28.716h-27.628c-2.053,0.09-3.691,1.739-3.765,3.79v2.439c0,8.291-6.734,15.012-15.053,15.012
						H379.55c-8.318,0-15.063-6.721-15.063-15.012v-2.3h-0.025c0-2.116-1.675-3.835-3.769-3.929h-27.817
						c-15.904,0-28.795,12.855-28.795,28.716V488.222z"/>
				</g>
				<g>
					<path id="path-1_1_" fill="#FFFFFF" d="M587.496,68.648c1.063,0.21,1.869,1.146,1.869,2.273v65.615
						c0,1.125-0.807,2.062-1.869,2.27v348.878c0,24.004-19.446,43.465-43.436,43.465H335.306c-23.99,0-43.439-19.461-43.439-43.465
						V153.915c-0.901-0.632-1.493-1.68-1.493-2.868v-38.837c0-1.187,0.592-2.234,1.493-2.869V98.536
						c-0.901-0.635-1.493-1.683-1.493-2.868V56.83c0-1.187,0.592-2.236,1.493-2.867V34.536h-1.355V11.544h1.355v-36.93
						c0-24.005,19.45-43.465,43.439-43.465h208.754c23.989,0,43.436,19.46,43.436,43.465V68.648z M304.082,488.222
						c0,15.858,12.891,28.712,28.795,28.712H546.46c15.902,0,28.789-12.854,28.789-28.712v-515.11
						c0-15.861-12.887-28.716-28.789-28.716h-27.628c-2.053,0.09-3.691,1.739-3.765,3.79v2.439c0,8.291-6.734,15.012-15.053,15.012
						H379.55c-8.318,0-15.063-6.721-15.063-15.012v-2.3h-0.025c0-2.116-1.675-3.835-3.769-3.929h-27.817
						c-15.904,0-28.795,12.855-28.795,28.716V488.222z"/>
				</g>
			</g>
		</g>
	</g>
</g>
</svg>
