<?xml version="1.0" encoding="utf-8"?>
<!-- Generator: Adobe Illustrator 16.0.0, SVG Export Plug-In . SVG Version: 6.00 Build 0)  -->
<!DOCTYPE svg PUBLIC "-//W3C//DTD SVG 1.1//EN" "http://www.w3.org/Graphics/SVG/1.1/DTD/svg11.dtd">
<svg version="1.1" id="Layer_1" xmlns="http://www.w3.org/2000/svg" xmlns:xlink="http://www.w3.org/1999/xlink" x="0px" y="0px"
	 width="730.375px" height="231.833px" viewBox="0 0 730.375 231.833" enable-background="new 0 0 730.375 231.833"
	 xml:space="preserve">
<path fill="#FFFFFF" d="M-0.04,231.333c0,0,59.665-122.5,112.517-145.981c0,0,18.023-7.894,36.746-3.922
	c0,0,70.778,19.07,178.703,59.708c0,0,73.327,26.289,106.201,18.508c0,0,18.161-3.555,32.973-22.716c0,0,52.13-75.782,79.409-97.606
	c0,0,34.432-30.896,64.462-36.691c0,0,43.3-14.053,93.665,52.075c0,0,29.259,48.142,24.182,97.64c0,0-2.477,52.486-12.146,79.486
	H-0.156L-0.04,231.333z"/>
</svg>
